<svg width="16" height="16" viewBox="0 0 16 16" fill="none" xmlns="http://www.w3.org/2000/svg">
<path d="M8.51929 8.56104V10.5143C9.29275 10.3318 9.60618 9.88332 9.60618 9.53763C9.60618 9.19194 9.29174 8.74341 8.51929 8.56104Z" fill="#1FC178"/>
<path fill-rule="evenodd" clip-rule="evenodd" d="M15.1298 8.26542L15.738 9.16367C16.2923 9.98264 15.9182 11.0811 14.972 11.4294L13.9307 11.8122C13.7436 11.8812 13.6158 12.0499 13.6056 12.2423L13.5483 13.3122C13.4962 14.2875 12.5219 14.9638 11.5436 14.7126L10.4659 14.4338C10.2731 14.3842 10.0668 14.4484 9.94054 14.5984L9.23963 15.4317C8.59985 16.1907 7.39741 16.1887 6.7605 15.4313L6.05959 14.5984C5.93296 14.4481 5.72633 14.3838 5.53384 14.4338L4.45722 14.7122C3.47598 14.9651 2.50343 14.285 2.45153 13.3122L2.39423 12.2419C2.38395 12.0498 2.25657 11.8812 2.06941 11.8122L1.02818 11.429C0.080992 11.0812 -0.291853 9.98082 0.262163 9.1637L0.870358 8.26545C0.979334 8.10429 0.979334 7.89554 0.87 7.73404L0.262163 6.83648C-0.292114 6.01748 0.0816099 4.91914 1.02815 4.57086L2.06938 4.18804C2.25657 4.11901 2.38395 3.95039 2.3942 3.75829L2.45156 2.68798C2.50353 1.71336 3.47901 1.0347 4.45725 1.28792L5.53387 1.56601C5.72668 1.61598 5.93367 1.55139 6.05927 1.40179L6.7605 0.568824C7.39781 -0.188988 8.6006 -0.190113 9.23927 0.568481L9.9405 1.40179C10.0661 1.55139 10.2727 1.61567 10.4659 1.56601L11.5429 1.28792C12.5224 1.03501 13.4963 1.71404 13.5483 2.68798L13.6056 3.75789C13.6159 3.94998 13.7436 4.11898 13.9307 4.18798L14.972 4.57114C15.9174 4.91829 16.2923 6.01617 15.7383 6.83576L15.1298 7.73436C15.0204 7.89586 15.0204 8.10426 15.1298 8.26542ZM8.51927 11.5831C9.88076 11.373 10.6931 10.4638 10.6931 9.53764C10.6931 8.59442 9.8605 7.69917 8.51927 7.49214V5.42776C9.29172 5.61014 9.60616 6.05873 9.60616 6.40439C9.60616 6.6927 9.84958 6.92661 10.1496 6.92661C10.4496 6.92661 10.6931 6.6927 10.6931 6.40439C10.6931 5.4612 9.86047 4.56595 8.51927 4.35892V3.79332C8.51927 3.50501 8.27585 3.27111 7.97582 3.27111C7.67579 3.27111 7.43237 3.50501 7.43237 3.79332V4.35889C6.10606 4.56361 5.25859 5.44901 5.25859 6.40439C5.25859 7.34757 6.09117 8.24282 7.43237 8.44986V10.5143C6.65992 10.3319 6.34548 9.88329 6.34548 9.53764C6.34548 9.24932 6.10207 9.01542 5.80203 9.01542C5.502 9.01542 5.25859 9.24932 5.25859 9.53764C5.25859 10.4808 6.09117 11.3761 7.43237 11.5831V12.1487C7.43237 12.437 7.67579 12.6709 7.97582 12.6709C8.27585 12.6709 8.51927 12.437 8.51927 12.1487V11.5831Z" fill="#1FC178"/>
<path d="M6.34552 6.40436C6.34552 6.75005 6.65996 7.19861 7.43241 7.38098V5.42773C6.65895 5.61017 6.34552 6.05867 6.34552 6.40436Z" fill="#1FC178"/>
</svg>
