<svg xmlns="http://www.w3.org/2000/svg" viewBox="0 0 66 162.62"><defs><style>.cls-1{fill:#e0e3fd;}.cls-2{fill:#b2b8fa;}.cls-3{fill:#c1c6fb;}.cls-4{fill:#ffcebd;}.cls-5{fill:#ff5722;}.cls-6{fill:#191c3c;}.cls-7{fill:#536dfe;}.cls-8{fill:#fff;}.cls-9{fill:#42b175;}.cls-10{fill:#4d5068;}.cls-11{fill:#231f20;opacity:0.15;isolation:isolate;}</style></defs><title>Person</title><g id="Layer_2" data-name="Layer 2"><g id="Layer_1-2" data-name="Layer 1"><path class="cls-1" d="M53.19,114.24a11.26,11.26,0,0,0-.88-4.38,23.87,23.87,0,0,0-4.62,20.88L49.08,132a14.47,14.47,0,0,0,4-8.39A43.08,43.08,0,0,0,53.19,114.24Z"/><path class="cls-1" d="M65.89,122.36a.73.73,0,0,0-.41-.19,10.62,10.62,0,0,0-12.94,10.37l.94,1.13c2,.54,4-.47,5.69-1.7a20.27,20.27,0,0,0,6.71-8.86A.7.7,0,0,0,65.89,122.36Z"/><path class="cls-1" d="M35.14,122.18c-2.11-1.71-4.56-3.38-7.27-3.22a.86.86,0,0,0-.75.34c-.3.56.65,1,.84,1.59a2.28,2.28,0,0,1-.14,1.09,3.54,3.54,0,0,0,.33,2,15.51,15.51,0,0,0,16.11,9.32l.82-1.29A73.17,73.17,0,0,0,35.14,122.18Z"/><path class="cls-1" d="M42.91,132.38c4.73,4.49,5.33,11.14,4.52,17.29-.18,1.34,1.93,1.32,2.1,0,.89-6.69,0-13.92-5.13-18.77-1-.93-2.47.55-1.49,1.49Z"/><path class="cls-1" d="M47.52,130.25c1,5.91-.27,11.87.36,17.81.14,1.33,2.25,1.35,2.1,0-.65-6.13.6-12.26-.43-18.37-.23-1.33-2.25-.77-2,.56Z"/><path class="cls-1" d="M53.68,129.83a29.61,29.61,0,0,0-4.3,8.49c-.88,3.31-.63,7-.78,10.44-.06,1.35,2,1.35,2.1,0,.14-3.21-.09-6.76.71-9.88a27.46,27.46,0,0,1,4.08-8c.75-1.13-1.07-2.18-1.82-1.06Z"/><path class="cls-2" d="M56.05,162H44.31a1.06,1.06,0,0,1-1-.79l-4-15.08a1.06,1.06,0,0,1,1-1.34H60a1.06,1.06,0,0,1,1,1.34l-4,15.08A1.06,1.06,0,0,1,56.05,162Z"/><path class="cls-3" d="M51.8,112.13c-1.56,5.89-1.58,12-3,18,0,.19.25.27.29.08,1.42-5.92,1.44-12.06,3-18a.15.15,0,1,0-.29-.08Z"/><path class="cls-3" d="M53.7,131.85a20.09,20.09,0,0,1,10.42-8.24c.18-.06.1-.36-.08-.29a20.43,20.43,0,0,0-10.6,8.38c-.11.17.16.32.26.15Z"/><path class="cls-3" d="M28.58,120.85a12.18,12.18,0,0,0,4.69,5.49c3,2.1,6.85,3.13,9.6,5.49.17.15.43-.1.25-.25-1.91-1.64-4.35-2.31-6.51-3.55-3.11-1.77-6.31-3.82-7.69-7.28-.08-.21-.43-.12-.34.09Z"/><rect class="cls-4" x="4.29" y="148.35" width="4.66" height="7.09"/><path class="cls-5" d="M9.58,153.61a29.08,29.08,0,0,0,1.07,5.48c.1.32.37.57.37.91v2.61H0v-1.39a3,3,0,0,1,.59-1.77c.94-1.27,3.72-3.89,3.29-5.84Z"/><path class="cls-6" d="M9.55,153.61Z"/><path class="cls-6" d="M11,160.74v1.88H0v-1.39a2.94,2.94,0,0,1,0-.5Z"/><rect class="cls-6" x="4.65" y="155.1" width="3.04" height="0.68" rx="0.27" ry="0.27"/><rect class="cls-6" x="4.28" y="156.62" width="3.04" height="0.68" rx="0.27" ry="0.27"/><rect class="cls-4" x="34.58" y="148.35" width="4.66" height="7.09"/><path class="cls-7" d="M26.53,88c-1.3,3.21-9.18,31.06-9.18,31.06l-7.11,33.37H3.3l3.58-37.87L9.5,74.4l15,1.79,2.72,7.45Z"/><polygon class="cls-7" points="42.29 81.98 41.86 115.58 40.21 152.49 33.6 152.49 30.93 123.06 24.54 88.42 24.54 76.2 41.03 77.71 42.29 81.98"/><path class="cls-4" d="M25.47,33.83h9.92V20.74H24.54C27.06,24,25.47,33.83,25.47,33.83Z"/><path class="cls-8" d="M41,80.47c-.32,7.73-25.34-4.73-30.79-1.84l6.61-45.49s6.06-2.41,8.62-.53c3.53,2.59,9.92,0,9.92,0l4.41,1.77S41.31,73.86,41,80.47Z"/><path class="cls-9" d="M25.92,25.65s1.8,30-13.06,49c0,0-4.54,11.22-8.21,11.77,0,0-3.83-9.73.85-17.42,2.88-4.72,8.43-15.07,8.76-20.59l.94-15.84Z"/><path class="cls-9" d="M35.39,25.65s-4.34,19.67-4.45,29.72c-.09,8.17,12.6,35.42,12.6,35.42s7.83-8.18,3.7-17.62C44.52,66.94,41.48,62,41.87,57.92L41.8,29.81Z"/><path class="cls-4" d="M21.11,18.29a17,17,0,0,1,.72-3.89,3.2,3.2,0,0,0-1.14-.24.52.52,0,0,1-.32-.86C21.58,12,23.79,9.76,24.15,9a6.39,6.39,0,0,1,.72-1.33,10.1,10.1,0,0,0,.57-1,1.77,1.77,0,0,1,1.21-1,4.1,4.1,0,0,1,1.48.17,27.69,27.69,0,0,1,6,1.94,11.56,11.56,0,0,1,2.07,1.2,6.28,6.28,0,0,1,2,2.82,11.21,11.21,0,0,1,0,6,5.15,5.15,0,0,1-.43,1.41,4.48,4.48,0,0,1-1.66,1.57c-1.18.72-2.41,1.37-3.65,2a13.47,13.47,0,0,1-2.28,1,13.12,13.12,0,0,1-4,.32,6.32,6.32,0,0,1-3-.6,4,4,0,0,1-1.72-2.26A7.72,7.72,0,0,1,21.11,18.29Z"/><path class="cls-10" d="M24.18,0a12.94,12.94,0,0,0,6.89,2.49A36.56,36.56,0,0,1,38.4,3.67c1.46.49,3.72,1.41,4.42,2.9,1,2.09.82,5.19.29,7.37a11,11,0,0,1-2.29,4.5,12.45,12.45,0,0,1-4.35,2.91l-.41.21a2.11,2.11,0,0,1-.43.25c-.28.06-.34-.42-.34-.63A2.43,2.43,0,0,1,35.67,20a7.18,7.18,0,0,1,.71-.86,4.94,4.94,0,0,0,.72-2.9A3.68,3.68,0,0,0,37,14.74a1.4,1.4,0,0,0-1-1,1.86,1.86,0,0,0-1.41.59,7.55,7.55,0,0,0-1.87,2.47l-.08-2.61a6.39,6.39,0,0,0-.22-1.78c-.24-.75-.77-1.49-.59-2.25a8,8,0,0,0,.36-1,1.36,1.36,0,0,0-.79-1.25,5,5,0,0,0-1.51-.4,24.13,24.13,0,0,1-2.36-.63,5,5,0,0,1-2-1,4,4,0,0,1-1.13-2.07,10.72,10.72,0,0,1-.2-2.38A11.63,11.63,0,0,1,24.18,0Z"/><path class="cls-4" d="M53.93,47l5.33,13.69A4.85,4.85,0,0,1,58.88,65L42,86.58l-3-4.51L49.8,64.94a5.14,5.14,0,0,0-.12-4.68L44.42,51S50.8,53.37,53.93,47Z"/><path class="cls-4" d="M39,82.12,37,82.47l-1.34,1.27a1.21,1.21,0,0,0-.09,1.68l.4.46-.6,1a1.11,1.11,0,0,0,.08,1.29l1.87,2.3a1.11,1.11,0,0,0,1.44.24l2-1.26a1.9,1.9,0,0,0,.86-1.25l.29-1.49Z"/><path class="cls-5" d="M39.87,153.61a6.58,6.58,0,0,0,1.62,5.48,1.38,1.38,0,0,1,.37.91v2.61H31.39v-1.39a3,3,0,0,1,.59-1.77c.94-1.27,2.62-3.89,2.19-5.84Z"/><path class="cls-6" d="M39.8,153.61Z"/><path class="cls-6" d="M41.86,160.74v1.88H31.39v-1.39a2.94,2.94,0,0,1,0-.5Z"/><rect class="cls-6" x="34.95" y="155.1" width="3.04" height="0.68" rx="0.27" ry="0.27"/><rect class="cls-6" x="34.58" y="156.62" width="3.04" height="0.68" rx="0.27" ry="0.27"/><path class="cls-9" d="M35.39,25.65l6.91,4.51,3.08,1.46a8.65,8.65,0,0,1,4.34,4.67l5.55,12.63c-6,1.16-6.24,6.58-10.52,5.57l-6.13-14.6-3.23-7.28Z"/><path class="cls-9" d="M25.92,25.65l-6.92,3-3.86,1A8.19,8.19,0,0,0,9.75,34.2L3.3,47c4.13,0,8.42,5.53,9.09,4.47l7.92-13.89Z"/><path class="cls-11" d="M23.73,22.66a1.94,1.94,0,0,1,1-1.93h0a1,1,0,0,0,.46-.55l.61-1.69a2.83,2.83,0,0,0,.14-1.38l-.19-1.31A1.09,1.09,0,0,0,24.22,15L22,16l-1.37,1.35h0a9,9,0,0,0,.29,3.52,4.48,4.48,0,0,0,1.89,2.53,4.22,4.22,0,0,0,1.1.42Z"/><path class="cls-4" d="M4.06,47.51l15-24.18v-4A1.88,1.88,0,0,1,19.62,18l1.7-1.66,2-.9a1,1,0,0,1,1.37.75l.17,1.17a2.54,2.54,0,0,1-.06,1.2L24.25,20a.93.93,0,0,1-.41.49h0A1.74,1.74,0,0,0,23,22.27l.15,1.14,2.65.52-3.32,2.56-10.83,25A4.27,4.27,0,0,1,6,53.71l-.11-.05h0a4.27,4.27,0,0,1-1.84-6.15Z"/></g></g></svg>