<?xml version="1.0" encoding="UTF-8"?>
<svg width="77px" height="77px" viewBox="0 0 77 77" version="1.1" xmlns="http://www.w3.org/2000/svg" xmlns:xlink="http://www.w3.org/1999/xlink">
    <!-- Generator: Sketch 53.2 (72643) - https://sketchapp.com -->
    <title>loupe</title>
    <desc>Created with Sketch.</desc>
    <g id="Design" stroke="none" stroke-width="1" fill="none" fill-rule="evenodd">
        <g id="01-StartEngine-equity-option2" transform="translate(-222.000000, -1321.000000)" fill-rule="nonzero">
            <g id="Text" transform="translate(222.000000, 820.000000)">
                <g id="Step-1" transform="translate(0.000000, 501.000000)">
                    <g id="loupe" transform="translate(38.500000, 38.500000) scale(-1, 1) translate(-38.500000, -38.500000) ">
                        <path d="M69.059375,0 L7.940625,0 C3.56237793,0 0,3.57157382 0,7.96112286 L0,14.9402985 L77,14.9402985 L77,7.96112286 C77,3.57157382 73.4376221,0 69.059375,0 Z M15.0019348,9.98532881 L10.2072937,9.98532881 C8.96187131,9.98532881 7.95143436,8.97228341 7.95143436,7.72364618 C7.95143436,6.47453768 8.96187131,5.46196355 10.2072937,5.46196355 L15.0019348,5.46196355 C16.2473572,5.46196355 17.2577942,6.47453768 17.2577942,7.72364618 C17.2577942,8.97228341 16.2473572,9.98532881 15.0019348,9.98532881 Z M26.5274963,9.98532881 L21.7323852,9.98532881 C20.4869629,9.98532881 19.4765258,8.97228341 19.4765258,7.72364618 C19.4765258,6.47453768 20.4869629,5.46196355 21.7323852,5.46196355 L26.5274963,5.46196355 C27.7729187,5.46196355 28.7833557,6.47453768 28.7833557,7.72364618 C28.7833557,8.97228341 27.7729187,9.98532881 26.5274963,9.98532881 Z M66.9285278,9.98532881 L33.7443664,9.98532881 C32.4984742,9.98532881 31.488507,8.97228341 31.488507,7.72364618 C31.488507,6.47453768 32.4984742,5.46196355 33.7443664,5.46196355 L66.9285278,5.46196355 C68.1744201,5.46196355 69.1843871,6.47453768 69.1843871,7.72364618 C69.1843871,8.97228341 68.1744201,9.98532881 66.9285278,9.98532881 Z" id="Shape" fill="#243748"></path>
                        <path d="M35.8501652,39.2979349 C32.4877559,42.6598861 32.4877559,48.1306889 35.8501652,51.4931098 C39.2125746,54.8555306 44.6828891,54.8555306 48.0452985,51.4931098 C51.4072381,48.1306889 51.4081775,42.6598861 48.0457681,39.2979349 C44.6828891,35.9355142 39.2125746,35.9355142 35.8501652,39.2979349 L35.8501652,39.2979349 Z" id="Path" fill="#20C178"></path>
                        <path d="M0,19.5373134 L0,69.0764408 C0,73.4452783 3.56237793,77 7.940625,77 L69.059375,77 C73.4376221,77 77,73.4452783 77,69.0764408 L77,19.5373134 L0,19.5373134 Z M50.8658691,54.4655028 C46.2892945,59.0322417 39.1504395,59.516209 34.0263488,55.9239703 L26.1421203,63.7903164 C25.2613953,64.6700865 23.8326844,64.6700865 22.9524293,63.7903164 C22.0707641,62.9114842 22.0707641,61.4863127 22.9524293,60.6074804 L30.8338379,52.7430103 C27.2197632,47.6285254 27.7005432,40.4937581 32.2822875,35.9213917 C37.4059082,30.8092517 45.7427185,30.8092517 50.8658691,35.9213917 C55.9899597,41.0344697 55.9894898,49.3524248 50.8658691,54.4655028 Z" id="Shape" fill="#20C178"></path>
                    </g>
                </g>
            </g>
        </g>
    </g>
</svg>