<svg xmlns="http://www.w3.org/2000/svg" viewBox="0 0 81.56 81.56"><defs><style>.cls-1{fill:#20c178;}.cls-2{fill:#1c2e3d;}.cls-3{fill:none;}</style></defs><title>Speaker</title><g id="Layer_2" data-name="Layer 2"><g id="Layer_1-2" data-name="Layer 1"><g id="Page-1"><g id="why-startengine---v1"><g id="Platform"><g id="Group-11-Copy-3"><g id="Group-15"><path id="Path" class="cls-1" d="M59.34,8.27c-.46-1.45-2-4.55-4.95-3.61-.88.28-2.25,1.7-3.58,3.27l17,50.17a11,11,0,0,0,3.71.47c2.35-.78,2.44-3.61,1.81-6.21Z"/><path id="Path-2" data-name="Path" class="cls-2" d="M39.27,59c-4.32.9-9.05,2.21-13,3.2L42.42,76.48c2.06,1.45,5.38-.18,6.11-.42.36-.12,3.09-1,4.48-1.69.36-.12,1.59-.69.74-1.45Z"/><path id="Path-3" data-name="Path" class="cls-1" d="M80.53,42.7l-5.4-2a1.31,1.31,0,0,0-1.72,1,1.67,1.67,0,0,0,1,2l5.4,2a1.3,1.3,0,0,0,1.72-1A1.67,1.67,0,0,0,80.53,42.7Z"/><path id="Path-4" data-name="Path" class="cls-2" d="M47.12,12.63c-1.47,1.68-2.94,3.36-4.47,4.87A90.49,90.49,0,0,1,35.48,24,40.12,40.12,0,0,1,30,27.83a43.64,43.64,0,0,1-6.24,3.24l-8.25,2.69c-.73.24-1.18,2-1.19,2.61l6.5,20.28c.29.91,2,1.16,2.66,1.34l1.18-.18,13.55-3c1.67-.35,10.93-.47,11.11-.53,3.37.49,6.68.81,9.92,1.54.46.1,2.47.7,4.74,1.31L48.21,11.22C47.69,11.91,47.29,12.43,47.12,12.63Z"/><path id="Path-5" data-name="Path" class="cls-1" d="M10.69,38.48c-.53-1.65-2.49-.8-3.23-.56C3.23,39.29-2.67,41.65,1.33,53.66a3.68,3.68,0,0,0,.33.7c3.69,5.5,8.4,5.46,12.73,4.51.37-.12,2.45-1.21,2-2.67Z"/><path id="Path-6" data-name="Path" class="cls-1" d="M71.57,33.64A1.47,1.47,0,0,0,73,35.11h5.89a1.47,1.47,0,1,0,0-2.94H73A1.47,1.47,0,0,0,71.57,33.64Z"/><path id="Path-7" data-name="Path" class="cls-1" d="M69,24.83a1.31,1.31,0,0,0,1.72,1l5.4-2a1.67,1.67,0,0,0,1-2,1.31,1.31,0,0,0-1.72-1l-5.4,2A1.67,1.67,0,0,0,69,24.83Z"/><path id="Path-8" data-name="Path" class="cls-1" d="M67.69,18.16l4-4.51a2,2,0,0,0-.06-2.48,1.28,1.28,0,0,0-2-.22l-4,4.51a2,2,0,0,0,.06,2.48,1.28,1.28,0,0,0,2,.22Z"/></g></g></g></g></g><rect class="cls-3" width="81.56" height="81.56"/></g></g></svg>